<svg xmlns="http://www.w3.org/2000/svg" width="48" height="50" viewBox="0 0 48 50">
  <g fill="none">
    <path fill="#FFF" d="M23.9155147,49.4807193 C13.8836749,49.4938069 5.61068313,41.6299511 5.11127514,31.6112153 L5.11127514,31.5748153 C3.28007277,31.3442207 1.77716593,30.0152374 1.32421922,28.2260154 C0.79860323,26.1672314 0.0866192458,23.0921595 0.00217124762,20.1364796 C-0.0526136482,18.4267531 0.93344126,16.8541308 2.49629919,16.1586877 C4.03092316,15.4699997 6.21929111,14.9065277 8.97841105,14.4799197 C10.521771,10.9127198 12.343227,7.81143983 14.2695149,5.47455988 C17.2703309,1.84183996 20.5157548,1.10844666e-14 23.9155147,1.10844666e-14 C27.3152747,1.10844666e-14 30.5577866,1.84183996 33.5542345,5.47601588 C35.4717865,7.81289583 37.3005224,10.9098078 38.8409704,14.4697277 C41.5811623,14.8832317 43.7666183,15.4496157 45.3434663,16.1514077 C46.9054701,16.8441389 47.8921889,18.4140235 47.8390502,20.1219196 C47.7546022,23.0936155 47.0440742,26.1701434 46.5184582,28.2245594 C46.0662729,30.0172835 44.5602164,31.3487416 42.7255783,31.5777273 L42.7255783,31.6112153 C42.2121931,41.6285042 33.9372126,49.4854142 23.9067787,49.4792469 L23.9140587,49.4807193 L23.9155147,49.4807193 Z"/>
    <path fill="#FCFBFA" d="M23.9038667,3.13039993 C32.6151145,3.13039993 39.6781704,21.8545595 39.6781704,30.5672633 C39.6781704,39.2799672 32.6165705,46.343023 23.9024107,46.343023 C15.1911629,46.343023 8.12810707,39.2814232 8.12810707,30.5672633 C8.12956307,21.8545595 15.1926189,3.13039993 23.9038667,3.13039993 Z"/>
    <path fill="#252526" d="M43.9063943,18.2422236 L37.4708744,20.5121276 C37.4708744,20.5121276 38.4667784,23.5406075 38.4755144,23.5624475 C38.4857064,23.5857435 44.8877383,22.7368955 44.8877383,22.7368955 L43.9063943,18.2422236 Z M3.90133916,18.2422236 L10.336859,20.5121276 C10.336859,20.5121276 9.34241105,23.5406075 9.33221905,23.5624475 C9.32348305,23.5857435 2.92290718,22.7368955 2.92290718,22.7368955 L3.90279516,18.2422236 L3.90133916,18.2422236 Z"/>
    <path fill="#E0E0E0" d="M17.2819789,17.7049596 C18.2853149,17.6814406 19.1516908,18.4029023 19.3101868,19.3939196 C19.5140268,20.4888316 19.6494348,21.5968475 19.7134988,22.7106875 C19.7196228,23.0224945 19.6913019,23.3340244 19.6290508,23.6396155 C19.5546271,22.8919564 19.4487305,22.1477656 19.3116428,21.4090235 C19.1531468,20.4180063 18.2867709,19.6965446 17.2834349,19.7200636 C14.8664749,19.7448156 12.449515,19.9282716 10.055851,20.2704316 C10.282987,19.5657276 10.526139,18.8581116 10.786763,18.1592316 C12.9408719,17.8787482 15.1097985,17.7270546 17.2819789,17.7049596 L17.2819789,17.7049596 Z M39.6490504,29.8669274 C33.9677385,29.5742714 29.1148906,27.7557274 28.0199786,27.1063514 C27.1653067,26.6986714 26.0762187,25.8323514 25.7631787,23.6672795 C25.5535147,26.0522074 26.0034187,28.2245594 28.2427466,29.2976314 C28.4072746,29.3966394 32.6937385,31.5180313 39.6111944,31.8820313 C39.667043,31.2118383 39.6796878,30.5387451 39.6490504,29.8669274 L39.6490504,29.8669274 Z M8.17615507,29.8669274 C13.8574669,29.5742714 18.7103148,27.7557274 19.8052268,27.1063514 C20.6598988,26.6986714 21.7489868,25.8323514 22.0620268,23.6672795 C22.2716908,26.0522074 21.8217868,28.2245594 19.5824588,29.2976314 C19.4179308,29.3966394 15.1314669,31.5180313 8.21401107,31.8820313 C8.15816249,31.2118383 8.14551768,30.5387451 8.17615507,29.8669274 Z M30.5097386,17.7049596 C29.5064026,17.6814406 28.6400267,18.4029023 28.4815306,19.3939196 C28.2776906,20.4888316 28.1437386,21.5968475 28.0796746,22.7106875 C28.0728227,23.0225199 28.101151,23.3341307 28.1641226,23.6396155 C28.2442026,22.8373595 28.3548586,22.0729595 28.4800746,21.4090235 C28.6397483,20.4186771 29.5053932,19.6978242 30.5082826,19.7200636 C32.9266985,19.7448156 35.3422025,19.9282716 37.7358664,20.2704316 C37.5082812,19.561243 37.2645807,18.8573273 37.0049544,18.1592316 C34.8513276,17.878806 32.6828889,17.7271125 30.5111946,17.7049596 L30.5097386,17.7049596 Z"/>
    <path fill="#56555C" d="M10.105355,15.9985277 C11.654539,12.2420477 13.512395,8.99079981 15.4779949,6.59713586 C18.1555789,3.35025593 20.9889548,1.70497596 23.8994987,1.70497596 C26.8114987,1.70497596 29.6448746,3.35025593 32.3210025,6.59422386 C34.2938825,8.98497581 36.1590185,12.2362237 37.6936424,15.9970717 L37.7693544,16.1892637 L37.5771624,16.1615997 C37.0297064,16.0887997 36.5856265,16.0363837 36.0425385,15.9694077 L35.9741065,15.9694077 L35.9478985,15.9082557 C34.2050665,11.8401917 31.2304586,6.52724786 27.3880747,4.30830391 C26.3355217,3.66743192 25.1315968,3.31771083 23.8994987,3.29492793 C22.6678969,3.31796773 21.4645072,3.66767932 20.4123788,4.30830391 C16.5787309,6.52433586 13.612859,11.8125277 11.855467,15.9024317 L11.829259,15.9635837 L11.762283,15.9635837 C11.214827,16.0218237 10.769291,16.0756957 10.226203,16.1557757 L10.035467,16.1834397 L10.105355,15.9985277 L10.105355,15.9985277 Z M39.8295944,27.9027834 C39.4015304,27.8911354 38.9705544,27.8736634 38.5454024,27.8489114 L38.4143624,27.8489114 L38.3968904,27.7164154 C38.0125064,24.7257915 37.1534664,21.2226555 35.9595465,17.8578396 L35.8823785,17.6059516 L36.1415465,17.6408956 C36.6293065,17.7064156 37.1010504,17.7792156 37.5611464,17.8563836 L37.6557864,17.8709436 L37.6863624,17.9612156 C38.8366024,21.3216635 39.6519624,24.7883995 40.0014024,27.7236954 L40.0232424,27.9158874 L39.8295944,27.9013274 L39.8295944,27.9027834 Z"/>
    <path fill="#252526" d="M38.4230984,20.3257596 C38.1912726,19.5332271 37.9422377,18.7458303 37.6761704,17.9641276 L37.6470504,17.8738556 L37.5524104,17.8578396 C37.0995944,17.7806716 36.6205705,17.7078716 36.1328105,17.6423516 L35.8823785,17.6059516 L35.9697385,17.8534716 C36.2332745,18.5989436 36.4807945,19.3502396 36.7122985,20.1044476 C37.5305704,20.1990876 37.9935784,20.2646076 38.4230984,20.3257596 L38.4230984,20.3257596 Z"/>
    <path fill="#56555C" d="M7.92281108,27.6567194 C8.27225107,24.7214235 9.09489105,21.2546875 10.237851,17.8942396 L10.268427,17.8039676 L10.363067,17.7864956 C10.815883,17.7107836 11.294907,17.6365276 11.782667,17.5724636 L12.041835,17.5375196 L11.954475,17.7835836 C10.763467,21.1483995 9.89860303,24.6486235 9.51858704,27.6407034 L9.50111504,27.7746554 L9.37007505,27.7746554 C8.94346705,27.7994074 8.51103506,27.8168794 8.08588307,27.8270714 L7.89369108,27.8270714 L7.92281108,27.6567194 L7.92281108,27.6567194 Z"/>
    <path fill="#252526" d="M10.363067,17.7864956 L10.268427,17.8010556 L10.239307,17.8927836 C9.97322823,18.6759487 9.72419349,19.4648015 9.49237904,20.2587836 C10.293179,20.1568636 10.524683,20.1685116 11.194443,20.0971676 C11.430315,19.3298556 11.683659,18.5479836 11.961755,17.7821276 L12.049115,17.5375196 L11.788491,17.5724636 C11.3123726,17.6371412 10.8371845,17.7084922 10.363067,17.7864956 L10.363067,17.7864956 Z"/>
    <path fill="#56555C" d="M23.9038667,47.759711 C16.8379654,47.7602467 10.4904652,43.4396502 7.89951508,36.8659192 C7.02887895,34.6383832 6.62642546,32.2553827 6.7172431,29.8654714 L6.7172431,29.7577274 L6.8249871,29.7577274 C7.38554709,29.7431674 7.76847508,29.7286074 8.16741907,29.7082234 L8.29263507,29.7082234 L8.29263507,29.8319834 C7.98378194,36.3346919 11.7407431,42.3469867 17.7207696,44.9199019 C23.7007961,47.492817 30.6495517,46.0866725 35.1587465,41.3911671 C36.5875913,39.9091213 37.7062923,38.1568197 38.4493064,36.2369272 C39.2413704,34.1985273 39.5951784,32.0174393 39.4918024,29.8348954 L39.4918024,29.7096794 L39.6170184,29.7096794 C40.1746664,29.7387994 40.5590504,29.7504474 40.9594504,29.7591834 L41.0671944,29.7591834 L41.0671944,29.8669274 C41.1661291,32.2534553 40.7731162,34.6348259 39.9125864,36.8630072 C37.3275013,43.4422235 30.9770912,47.7671116 23.9082347,47.7626265 L23.9038667,47.7626265 L23.9038667,47.759711 Z"/>
    <path fill="#252526" d="M8.34650707,31.8834873 C8.29117907,31.1991673 8.27661907,30.5104793 8.30428307,29.8232474 L8.30428307,29.6980314 L8.17906707,29.6980314 C7.77721108,29.7198714 7.39282709,29.7344314 6.8366351,29.7489914 L6.7288911,29.7489914 L6.7288911,29.8552794 C6.7055951,30.5454233 6.7201551,31.2355673 6.7754831,31.9227993 L6.8264431,31.9227993 C7.34477909,31.9227993 7.85146708,31.8995033 8.33340307,31.8762073 L8.34650707,31.8834873 L8.34650707,31.8834873 Z M41.0802984,29.7562714 L40.9725544,29.7562714 C40.5663304,29.7562714 40.1819464,29.7344314 39.6301224,29.7067674 L39.5049064,29.7067674 L39.5049064,29.8305274 C39.5340264,30.5119353 39.5194664,31.1933433 39.4655944,31.8718393 L41.0380744,31.9402713 C41.0934024,31.2515833 41.1079624,30.5628953 41.0846664,29.8727514 L41.0802984,29.7562714 L41.0802984,29.7562714 Z"/>
    <path fill="#252526" d="M41.9670023,30.1071673 C38.6782588,30.119438 35.4022276,29.6984298 32.2234506,28.8550074 C30.8548106,28.4953754 29.5225706,28.0105274 28.2427466,27.4121114 L28.2121706,27.3888154 C25.5258507,26.1046234 25.4268427,23.5304155 25.6772747,21.1833435 C25.7398827,20.5907516 25.5229387,19.8059676 24.8983147,19.3895516 C24.3023776,18.9919414 23.5257399,18.9919414 22.9298028,19.3895516 C22.3037228,19.8030556 22.0867788,20.5863836 22.1493868,21.1775195 C22.3998188,23.5260475 22.2949868,26.1002554 19.6159468,27.3844474 L19.5853708,27.3990074 C18.3048105,28.0050574 16.9719762,28.4938445 15.6032109,28.8593754 C12.4244306,29.7027812 9.14840164,30.1237891 5.85965912,30.1115353 L5.84509912,30.1115353 C4.48050765,30.0949659 3.29840297,29.1610016 2.96658718,27.8372634 C2.45698719,25.8672954 1.77703521,22.9159835 1.69841121,20.1466716 C1.66308031,19.0382251 2.30181429,18.0185525 3.31457118,17.5666396 C7.0128111,15.9257277 14.4995629,15.3083837 17.6925709,15.3506077 C18.8064108,15.3418717 19.8765708,15.7844957 20.6598988,16.5765596 C21.6815368,16.0976998 22.7931761,15.8411295 23.9213387,15.8238077 C25.0493003,15.8401286 26.1609481,16.0957084 27.1827787,16.5736476 C27.9598096,15.7867815 29.0209563,15.3459491 30.1268106,15.3506077 C32.0458186,15.3214877 40.2955144,15.6782077 44.5164583,17.5564476 C45.5278758,18.0044342 46.1669566,19.0206302 46.1326183,20.1262876 C46.0539943,22.8999675 45.3653063,25.8672954 44.8717223,27.8328954 C44.5399065,29.1566336 43.3578018,30.0905979 41.9932103,30.1071673 L41.9670023,30.1071673 L41.9670023,30.1071673 Z M30.5286666,17.8272636 C29.5813656,17.8062399 28.7633581,18.48636 28.6111146,19.4215836 C28.4072746,20.5135836 28.2733226,21.6157755 28.2078026,22.7237915 C28.1932426,23.9905115 28.6475146,24.8568315 29.5502346,25.3009115 C32.9339785,26.8093274 36.8651785,27.5547994 41.5695143,27.5780954 C41.9301442,27.5762416 42.2446982,27.3327159 42.3368263,26.9840474 C42.7838183,25.2368475 43.3866023,22.6378875 43.4564903,20.2485916 C43.4639214,20.0196646 43.3313282,19.8092449 43.1216103,19.7171516 C39.9125864,18.2742556 33.0358985,17.7806716 30.5286666,17.8199836 L30.5286666,17.8272636 L30.5286666,17.8272636 Z M4.68466715,19.7127836 C4.47551966,19.8053253 4.34356503,20.015646 4.35124315,20.2442236 C4.42113115,22.6276955 5.02391514,25.2339355 5.47090713,26.9796794 C5.56117913,27.3291194 5.87713112,27.5737274 6.23821911,27.5751834 C10.946923,27.5518874 14.8722989,26.8064154 18.2662349,25.2950875 C19.1718668,24.8539195 19.6246828,23.9846875 19.6101228,22.7135995 C19.5448279,21.6068884 19.4096357,20.5054119 19.2053548,19.4157596 C19.053037,18.4799767 18.2341954,17.7996796 17.2863469,17.8214396 C15.8259789,17.7981436 8.32029907,18.0937116 4.68612315,19.7142396 L4.68466715,19.7127836 Z"/>
  </g>
</svg>
